<?xml version="1.0" encoding="UTF-8" standalone="no"?>
<!-- Created with Inkscape (http://www.inkscape.org/) -->

<svg
   xmlns:dc="http://purl.org/dc/elements/1.1/"
   xmlns:cc="http://creativecommons.org/ns#"
   xmlns:rdf="http://www.w3.org/1999/02/22-rdf-syntax-ns#"
   xmlns:svg="http://www.w3.org/2000/svg"
   xmlns="http://www.w3.org/2000/svg"
   xmlns:sodipodi="http://sodipodi.sourceforge.net/DTD/sodipodi-0.dtd"
   xmlns:inkscape="http://www.inkscape.org/namespaces/inkscape"
   width="210mm"
   height="297mm"
   viewBox="0 0 744.09448819 1052.3622047"
   id="svg2"
   version="1.1"
   inkscape:version="0.91 r13725"
   sodipodi:docname="logo-inkscape.svg">
  <defs
     id="defs4" />
  <sodipodi:namedview
     id="base"
     pagecolor="#ffffff"
     bordercolor="#666666"
     borderopacity="1.0"
     inkscape:pageopacity="0.0"
     inkscape:pageshadow="2"
     inkscape:zoom="0.98994949"
     inkscape:cx="474.86892"
     inkscape:cy="597.90361"
     inkscape:document-units="px"
     inkscape:current-layer="layer1"
     showgrid="false"
     inkscape:window-width="1920"
     inkscape:window-height="1080"
     inkscape:window-x="0"
     inkscape:window-y="0"
     inkscape:window-maximized="0" />
  <metadata
     id="metadata7">
    <rdf:RDF>
      <cc:Work
         rdf:about="">
        <dc:format>image/svg+xml</dc:format>
        <dc:type
           rdf:resource="http://purl.org/dc/dcmitype/StillImage" />
        <dc:title></dc:title>
      </cc:Work>
    </rdf:RDF>
  </metadata>
  <g
     inkscape:label="Layer 1"
     inkscape:groupmode="layer"
     id="layer1">
    <g
       id="g4191"
       transform="matrix(1.4493567,0,0,1.4493567,-1133.5802,216.05458)">
      <path
         sodipodi:nodetypes="ccscsscssc"
         inkscape:connector-curvature="0"
         id="path4181"
         d="m 822.01286,113.69668 c 9.33968,41.61689 101.78126,31.94317 125.71429,117.14285 2.21915,-18.80153 15.08539,-44.14749 53.39235,-74.36577 46.5925,-36.7543 31.6078,-50.63423 31.6078,-50.63423 17.6678,13.17231 -16.3011,43.25452 -16.3011,43.25452 -36.96561,31.98675 -28.53266,28.25502 -44.77044,46.0312 -21.78111,23.84469 -21.78575,63.57143 -21.78575,63.57143 0,0 -10.20396,-37.59885 -43.78807,-73.09472 C 889.37352,167.94243 868.87928,163.57738 849.08635,152.89302 829.2934,142.20865 823.7732,138.0621 822.01286,113.69668 Z"
         style="fill:#6aa344;fill-opacity:1;fill-rule:evenodd;stroke:none;stroke-width:1px;stroke-linecap:butt;stroke-linejoin:miter;stroke-opacity:1" />
      <path
         sodipodi:nodetypes="ssasssss"
         inkscape:connector-curvature="0"
         id="path4183"
         d="M 947.85714,229.50506 C 940.01757,199.40579 939.81775,186.23972 935,158.79078 c -5.14573,-29.31756 0.91896,-66.233557 2.85714,-99.285719 1.10541,-18.850836 7.84131,-38.190427 5,-56.4285714 -2.57521,-16.5300796 -24.28571,-34.2857146 -24.28571,-34.2857146 16.99895,5.631859 28.63118,20.733505 33.57143,42.142857 6.27812,27.207237 -0.16024,70.779788 -2.85714,98.571428 -5.88887,60.68499 -1.42858,120 -1.42858,120 z"
         style="fill:#6aa344;fill-opacity:1;fill-rule:evenodd;stroke:none;stroke-width:1px;stroke-linecap:butt;stroke-linejoin:miter;stroke-opacity:1" />
      <path
         sodipodi:nodetypes="sscss"
         inkscape:connector-curvature="0"
         id="path4187"
         d="m 945.03589,202.3622 c 6.22037,-53.17058 5.13371,-44.00657 12.14286,-64.28571 7.06631,-20.44452 21.49677,-37.53493 10.25254,-62.770486 14.24549,8.97382 8.2527,39.812836 -3.10969,63.484776 -9.58236,19.96349 -19.28571,63.57142 -19.28571,63.57142 z"
         style="fill:#6aa344;fill-opacity:1;fill-rule:evenodd;stroke:none;stroke-width:1px;stroke-linecap:butt;stroke-linejoin:miter;stroke-opacity:1" />
      <path
         sodipodi:nodetypes="sssscs"
         inkscape:connector-curvature="0"
         id="path4189"
         d="m 945.50279,210.40006 c -5.61589,13.18132 33.51327,-46.97605 39.64847,-66.67007 31.65204,-101.603042 51.51774,-91.166268 51.51774,-91.166268 -31.6647,-12.399447 -52.6285,66.927678 -55.05326,74.498748 -8.29858,25.91142 -19.05789,56.46147 -35.13955,81.05287 z"
         style="fill:#6aa344;fill-opacity:1;fill-rule:evenodd;stroke:none;stroke-width:1px;stroke-linecap:butt;stroke-linejoin:miter;stroke-opacity:1" />
    </g>
    <text
       xml:space="preserve"
       style="font-style:normal;font-weight:normal;font-size:25px;line-height:125%;font-family:Sans;letter-spacing:0px;word-spacing:0px;fill:#6aa344;fill-opacity:1;stroke:none;stroke-width:1px;stroke-linecap:butt;stroke-linejoin:miter;stroke-opacity:1"
       x="290.91882"
       y="569.50928"
       id="text4205"
       sodipodi:linespacing="125%"><tspan
         sodipodi:role="line"
         id="tspan4207"
         x="290.91882"
         y="569.50928"
         style="font-style:normal;font-variant:normal;font-weight:bold;font-stretch:normal;font-size:90px;font-family:'Nimbus Sans L';-inkscape-font-specification:'Nimbus Sans L Bold';fill:#6aa344;fill-opacity:1;stroke:none;stroke-opacity:1">Tarragon</tspan></text>
  </g>
</svg>
